<svg xmlns="http://www.w3.org/2000/svg" width="151.001" height="50.067" viewBox="0 0 151.001 50.067">
  <g id="Group_2818" data-name="Group 2818" transform="translate(0.5 0.5)">
    <path id="Path_2152" data-name="Path 2152" d="M246.642,978.261a6.631,6.631,0,0,1-6.629,6.631H103.272a6.632,6.632,0,0,1-6.631-6.631V942.456a6.632,6.632,0,0,1,6.631-6.631H240.013a6.63,6.63,0,0,1,6.629,6.631Z" transform="translate(-96.641 -935.825)" fill="none" stroke="#fff" stroke-width="1"/>
    <g id="Group_2751" data-name="Group 2751" transform="translate(10.062 7.628)">
      <path id="Path_2153" data-name="Path 2153" d="M160.691,1006.775a24.3,24.3,0,0,1-2.2,4.1c-1.427,2.172-3.437,4.877-5.928,4.9-2.214.02-2.783-1.441-5.787-1.425s-3.632,1.45-5.846,1.43c-2.491-.023-4.4-2.465-5.823-4.637-3.989-6.073-4.406-13.2-1.946-16.988a8.828,8.828,0,0,1,7.1-4.269c2.641,0,4.3,1.448,6.484,1.448,2.118,0,3.409-1.451,6.461-1.451a8.617,8.617,0,0,1,6.5,3.43A7.432,7.432,0,0,0,160.691,1006.775Z" transform="translate(-131.637 -981.969)" fill="#fff"/>
      <g id="Group_2750" data-name="Group 2750" transform="translate(13.965 0)">
        <path id="Path_2154" data-name="Path 2154" d="M185.5,967.844a7.411,7.411,0,0,0,1.646-5.489,8.008,8.008,0,0,0-5.169,2.78,6.88,6.88,0,0,0-1.689,5.354A6.758,6.758,0,0,0,185.5,967.844Z" transform="translate(-180.207 -962.355)" fill="#fff"/>
      </g>
    </g>
    <g id="Group_2754" data-name="Group 2754" transform="translate(45.555 7.7)">
      <g id="Group_2752" data-name="Group 2752" transform="translate(0 11.754)">
        <path id="Path_2155" data-name="Path 2155" d="M260.8,1004.42l-5.714,16.821H257.7l1.706-5.165h5.533l1.754,5.165h2.689l-5.739-16.821Zm1.356,2.766c.193.751.4,1.531.669,2.373l1.54,4.46h-4.383l1.519-4.49C261.728,1008.8,261.948,1008.016,262.152,1007.185Z" transform="translate(-255.082 -1004.152)" fill="#fff"/>
        <path id="Path_2156" data-name="Path 2156" d="M314.489,1019.586a4.761,4.761,0,0,0-4.046,1.941l-.1-1.673h-2.328l.014.214c.069,1.042.1,2.189.1,3.836v12.965h2.545v-6.051a4.469,4.469,0,0,0,3.479,1.495,5.246,5.246,0,0,0,3.856-1.64,6.952,6.952,0,0,0,1.7-4.9,6.769,6.769,0,0,0-1.478-4.469A4.843,4.843,0,0,0,314.489,1019.586Zm-.634,2.107c2.269,0,3.284,2.1,3.284,4.184,0,2.686-1.3,4.354-3.381,4.354a3.085,3.085,0,0,1-3-2.362,3.247,3.247,0,0,1-.09-.824V1025a3.827,3.827,0,0,1,.081-.628c.013-.07.026-.139.037-.207A3.223,3.223,0,0,1,313.855,1021.693Z" transform="translate(-292.795 -1014.957)" fill="#fff"/>
        <path id="Path_2157" data-name="Path 2157" d="M360.071,1019.586a4.764,4.764,0,0,0-4.046,1.941l-.1-1.673H353.6l.013.214c.069,1.043.1,2.189.1,3.836v12.965h2.545v-6.051a4.467,4.467,0,0,0,3.478,1.495,5.253,5.253,0,0,0,3.858-1.64,6.961,6.961,0,0,0,1.7-4.9,6.77,6.77,0,0,0-1.48-4.469A4.841,4.841,0,0,0,360.071,1019.586Zm-.633,2.107c2.268,0,3.283,2.1,3.283,4.184,0,2.686-1.3,4.354-3.38,4.354a3.085,3.085,0,0,1-3-2.362,3.25,3.25,0,0,1-.09-.824V1025a3.771,3.771,0,0,1,.081-.63c.013-.069.025-.137.037-.2A3.221,3.221,0,0,1,359.437,1021.693Z" transform="translate(-325.271 -1014.957)" fill="#fff"/>
        <path id="Path_2158" data-name="Path 2158" d="M418.2,1010.883c-2.375-.92-3.136-1.643-3.136-2.979,0-1.125.894-2.261,2.893-2.261a5.784,5.784,0,0,1,2.988.75l.216.133.718-2.124-.142-.083a7.375,7.375,0,0,0-3.706-.832c-3.246,0-5.512,1.916-5.512,4.658,0,2.212,1.42,3.758,4.467,4.866,2.16.807,2.964,1.634,2.964,3.052,0,1.6-1.24,2.6-3.235,2.6a6.965,6.965,0,0,1-3.668-1.04l-.221-.142-.683,2.173.126.083a8.717,8.717,0,0,0,4.3,1.105c4.374,0,5.925-2.667,5.925-4.951C422.5,1013.539,421.253,1012.087,418.2,1010.883Z" transform="translate(-366.987 -1003.488)" fill="#fff"/>
        <path id="Path_2159" data-name="Path 2159" d="M453.368,1010.439l-2.5.783v2.115h-1.827v2.034h1.827v6.231a4.763,4.763,0,0,0,.881,3.229,3.263,3.263,0,0,0,2.462.966,5.992,5.992,0,0,0,1.967-.3l.143-.051-.122-2.037-.244.075a3.832,3.832,0,0,1-1.184.137c-.986,0-1.407-.624-1.407-2.089v-6.157h3.07v-2.034h-3.07Z" transform="translate(-393.277 -1008.44)" fill="#fff"/>
        <path id="Path_2160" data-name="Path 2160" d="M481.709,1019.586c-3.561,0-6.047,2.658-6.047,6.461,0,3.69,2.406,6.267,5.853,6.267h.024c2.913,0,6.047-2.029,6.047-6.485a6.429,6.429,0,0,0-1.622-4.5A5.663,5.663,0,0,0,481.709,1019.586Zm-.074,2.009c2.289,0,3.332,2.232,3.332,4.307,0,2.551-1.422,4.4-3.38,4.4h-.025c-1.93,0-3.331-1.821-3.331-4.329C478.232,1023.8,479.285,1021.6,481.636,1021.6Z" transform="translate(-412.241 -1014.957)" fill="#fff"/>
        <path id="Path_2161" data-name="Path 2161" d="M528.546,1019.7l-.153-.039a2.445,2.445,0,0,0-.633-.08,3.631,3.631,0,0,0-3.191,2.049l-.075-1.781h-2.284l.015.214c.068,1.007.1,2.138.1,3.665l-.024,8.314h2.545v-6.486a6.562,6.562,0,0,1,.07-.986,2.813,2.813,0,0,1,2.678-2.564,6.591,6.591,0,0,1,.683.042l.272.028Z" transform="translate(-445.406 -1014.957)" fill="#fff"/>
        <path id="Path_2162" data-name="Path 2162" d="M549.885,1019.5c-3.388,0-5.754,2.707-5.754,6.583,0,3.733,2.354,6.145,6,6.145a9.761,9.761,0,0,0,4.029-.773l.153-.069-.489-1.9-.212.086a7.886,7.886,0,0,1-3.189.57,3.538,3.538,0,0,1-3.812-3.69l8.214.025.033-.162a5.642,5.642,0,0,0,.077-1.062C554.934,1022.6,553.612,1019.5,549.885,1019.5Zm-.169,1.936a2.511,2.511,0,0,1,1.868.713,3.623,3.623,0,0,1,.877,2.37h-5.8C546.893,1023.051,547.812,1021.438,549.716,1021.438Z" transform="translate(-461.024 -1014.898)" fill="#fff"/>
      </g>
      <g id="Group_2753" data-name="Group 2753">
        <path id="Path_2163" data-name="Path 2163" d="M255.082,964.046a18.542,18.542,0,0,1,2.441-.165,5.447,5.447,0,0,1,3.583.98,3.484,3.484,0,0,1,1.26,2.87,4.03,4.03,0,0,1-1.273,3.095,5.905,5.905,0,0,1-3.924,1.146,17.651,17.651,0,0,1-2.087-.095Zm1.155,7.052a8.2,8.2,0,0,0,1.155.047c2.441.011,3.766-1.229,3.766-3.378.013-1.9-1.168-3.071-3.583-3.071a7.265,7.265,0,0,0-1.339.106Z" transform="translate(-255.082 -963.515)" fill="#fff"/>
        <path id="Path_2164" data-name="Path 2164" d="M287.109,977.417a2.869,2.869,0,0,1-3.045-2.941,2.949,2.949,0,0,1,3.15-3.036,2.846,2.846,0,0,1,3.058,2.929,2.96,2.96,0,0,1-3.149,3.047Zm.039-.78a2.034,2.034,0,0,0,1.93-2.233,1.942,1.942,0,1,0-1.943,2.233Z" transform="translate(-275.731 -968.9)" fill="#fff"/>
        <path id="Path_2165" data-name="Path 2165" d="M309.082,971.891l.853,2.894c.17.638.341,1.24.459,1.831h.039c.144-.579.354-1.193.564-1.819l1.037-2.906h.971l.984,2.858c.236.674.42,1.288.564,1.867h.039a15.815,15.815,0,0,1,.486-1.854l.905-2.87h1.142l-2.047,5.717h-1.05l-.971-2.728a18.743,18.743,0,0,1-.565-1.89h-.026a15.673,15.673,0,0,1-.578,1.9l-1.023,2.717h-1.05l-1.917-5.717Z" transform="translate(-292.714 -969.222)" fill="#fff"/>
        <path id="Path_2166" data-name="Path 2166" d="M343.881,973.117c0-.6-.013-1.075-.053-1.547h1.024l.065.934h.026a2.4,2.4,0,0,1,2.1-1.063,2.174,2.174,0,0,1,2.244,2.433v3.413h-1.154v-3.3c0-.922-.381-1.7-1.471-1.7a1.648,1.648,0,0,0-1.548,1.063,1.4,1.4,0,0,0-.079.484v3.449h-1.155Z" transform="translate(-318.312 -968.9)" fill="#fff"/>
        <path id="Path_2167" data-name="Path 2167" d="M369.346,962.607H370.5v8.386h-1.155Z" transform="translate(-336.493 -962.607)" fill="#fff"/>
        <path id="Path_2168" data-name="Path 2168" d="M381.477,977.417a2.869,2.869,0,0,1-3.045-2.941,2.948,2.948,0,0,1,3.15-3.036,2.847,2.847,0,0,1,3.057,2.929,2.96,2.96,0,0,1-3.15,3.047Zm.039-.78a2.034,2.034,0,0,0,1.93-2.233,1.942,1.942,0,1,0-1.943,2.233Z" transform="translate(-342.967 -968.9)" fill="#fff"/>
        <path id="Path_2169" data-name="Path 2169" d="M408.331,975.917a8.616,8.616,0,0,0,.092,1.37h-1.037l-.1-.72h-.039a2.442,2.442,0,0,1-1.943.85,1.732,1.732,0,0,1-1.942-1.642c0-1.382,1.365-2.138,3.819-2.126v-.118c0-.473-.144-1.335-1.443-1.323a3.314,3.314,0,0,0-1.667.425l-.263-.7a4.473,4.473,0,0,1,2.1-.5,2.125,2.125,0,0,1,2.427,2.338Zm-1.128-1.547c-1.26-.024-2.691.177-2.691,1.287a.966.966,0,0,0,1.076.992,1.6,1.6,0,0,0,1.562-.957.953.953,0,0,0,.053-.331Z" transform="translate(-360.725 -968.9)" fill="#fff"/>
        <path id="Path_2170" data-name="Path 2170" d="M431.441,962.607v6.91c0,.508.014,1.087.053,1.476h-1.037L430.4,970h-.026a2.377,2.377,0,0,1-2.152,1.122,2.726,2.726,0,0,1-2.73-2.906,2.85,2.85,0,0,1,2.848-3.071,2.185,2.185,0,0,1,1.917.862h.026v-3.4Zm-1.155,5a1.734,1.734,0,0,0-.053-.449,1.67,1.67,0,0,0-1.666-1.193,1.956,1.956,0,0,0-1.9,2.2,1.9,1.9,0,0,0,1.877,2.125,1.719,1.719,0,0,0,1.693-1.24,1.621,1.621,0,0,0,.053-.449Z" transform="translate(-376.499 -962.607)" fill="#fff"/>
        <path id="Path_2171" data-name="Path 2171" d="M463.965,977.417a2.87,2.87,0,0,1-3.045-2.941,2.949,2.949,0,0,1,3.15-3.036,2.847,2.847,0,0,1,3.058,2.929,2.96,2.96,0,0,1-3.149,3.047Zm.04-.78a2.034,2.034,0,0,0,1.929-2.233,1.942,1.942,0,1,0-1.942,2.233Z" transform="translate(-401.738 -968.9)" fill="#fff"/>
        <path id="Path_2172" data-name="Path 2172" d="M487.451,973.117c0-.6-.014-1.075-.053-1.547h1.024l.066.934h.026a2.4,2.4,0,0,1,2.1-1.063,2.174,2.174,0,0,1,2.245,2.433v3.413H491.7v-3.3c0-.922-.38-1.7-1.47-1.7a1.649,1.649,0,0,0-1.549,1.063,1.408,1.408,0,0,0-.078.484v3.449h-1.155Z" transform="translate(-420.603 -968.9)" fill="#fff"/>
        <path id="Path_2173" data-name="Path 2173" d="M522.2,967.127v1.37h1.653v.791H522.2v3.083c0,.708.223,1.11.866,1.11a2.376,2.376,0,0,0,.669-.071l.052.791a3.467,3.467,0,0,1-1.024.142,1.749,1.749,0,0,1-1.247-.437,2.075,2.075,0,0,1-.446-1.5v-3.118h-.984V968.5h.984v-1.051Z" transform="translate(-443.891 -965.827)" fill="#fff"/>
        <path id="Path_2174" data-name="Path 2174" d="M537.705,962.607h1.155v3.567h.027a1.959,1.959,0,0,1,.827-.732,2.436,2.436,0,0,1,1.181-.3,2.173,2.173,0,0,1,2.218,2.444v3.4h-1.155V967.71c0-.933-.381-1.7-1.47-1.7a1.66,1.66,0,0,0-1.549,1.039,1.141,1.141,0,0,0-.079.5v3.449h-1.155Z" transform="translate(-456.446 -962.607)" fill="#fff"/>
        <path id="Path_2175" data-name="Path 2175" d="M562.558,974.575a1.936,1.936,0,0,0,2.166,1.985,4.815,4.815,0,0,0,1.76-.284l.21.732a5.687,5.687,0,0,1-2.126.366,2.817,2.817,0,0,1-3.124-2.882,2.911,2.911,0,0,1,2.992-3.1,2.5,2.5,0,0,1,2.612,2.694,2.4,2.4,0,0,1-.039.5Zm3.374-.744a1.534,1.534,0,0,0-1.589-1.689,1.8,1.8,0,0,0-1.772,1.689Z" transform="translate(-473.359 -968.87)" fill="#fff"/>
      </g>
    </g>
  </g>
</svg>
