<svg xmlns="http://www.w3.org/2000/svg" xmlns:xlink="http://www.w3.org/1999/xlink" width="151" height="46" viewBox="0 0 151 46">
  <defs>
    <linearGradient id="linear-gradient" x1="0.915" y1="6.614" x2="-0.383" y2="5.945" gradientUnits="objectBoundingBox">
      <stop offset="0" stop-color="#00a0ff"/>
      <stop offset="0.007" stop-color="#00a1ff"/>
      <stop offset="0.26" stop-color="#00beff"/>
      <stop offset="0.512" stop-color="#00d2ff"/>
      <stop offset="0.76" stop-color="#00dfff"/>
      <stop offset="1" stop-color="#00e3ff"/>
    </linearGradient>
    <linearGradient id="linear-gradient-2" x1="1.076" y1="17.098" x2="-1.305" y2="17.098" gradientUnits="objectBoundingBox">
      <stop offset="0" stop-color="#ffe000"/>
      <stop offset="0.409" stop-color="#ffbd00"/>
      <stop offset="0.775" stop-color="orange"/>
      <stop offset="1" stop-color="#ff9c00"/>
    </linearGradient>
    <linearGradient id="linear-gradient-3" x1="0.862" y1="10.863" x2="-0.501" y2="9.093" gradientUnits="objectBoundingBox">
      <stop offset="0" stop-color="#ff3a44"/>
      <stop offset="1" stop-color="#c31162"/>
    </linearGradient>
    <linearGradient id="linear-gradient-4" x1="-0.188" y1="13.583" x2="0.421" y2="12.793" gradientUnits="objectBoundingBox">
      <stop offset="0" stop-color="#32a071"/>
      <stop offset="0.068" stop-color="#2da771"/>
      <stop offset="0.476" stop-color="#15cf74"/>
      <stop offset="0.801" stop-color="#06e775"/>
      <stop offset="1" stop-color="#00f076"/>
    </linearGradient>
  </defs>
  <g id="Group_2817" data-name="Group 2817" transform="translate(0.5 0.611)">
    <rect id="Rectangle_1260" data-name="Rectangle 1260" width="150" height="45" rx="5" transform="translate(0 -0.111)" fill="none" stroke="#fff" stroke-width="1"/>
    <g id="Group_2746" data-name="Group 2746" transform="translate(45.947 7.629)">
      <path id="Path_2136" data-name="Path 2136" d="M58.092,20.618a3.01,3.01,0,0,1-.828,2.226,3.231,3.231,0,0,1-2.449.987,3.434,3.434,0,0,1-3.463-3.482,3.434,3.434,0,0,1,3.463-3.482,3.451,3.451,0,0,1,1.369.279,2.743,2.743,0,0,1,1.042.746l-.586.586a2.255,2.255,0,0,0-1.826-.79,2.578,2.578,0,0,0-2.589,2.662,2.622,2.622,0,0,0,4.451,1.919,2.1,2.1,0,0,0,.559-1.351H54.815v-.8h3.231A2.841,2.841,0,0,1,58.092,20.618Z" transform="translate(-51.352 -16.866)" fill="#fff" stroke="#fff" stroke-miterlimit="10" stroke-width="0.2"/>
      <path id="Path_2137" data-name="Path 2137" d="M62.417,17.819H59.381v2.114h2.738v.8H59.381v2.114h3.037v.819H58.525V17h3.892Z" transform="translate(-50.555 -16.851)" fill="#fff" stroke="#fff" stroke-miterlimit="10" stroke-width="0.2"/>
      <path id="Path_2138" data-name="Path 2138" d="M65.551,23.667h-.858V17.819H62.832V17h4.581v.819H65.551Z" transform="translate(-50.076 -16.851)" fill="#fff" stroke="#fff" stroke-miterlimit="10" stroke-width="0.2"/>
      <path id="Path_2139" data-name="Path 2139" d="M69.938,23.667V17h.856v6.667Z" transform="translate(-49.287 -16.851)" fill="#fff" stroke="#fff" stroke-miterlimit="10" stroke-width="0.2"/>
      <path id="Path_2140" data-name="Path 2140" d="M74.4,23.667h-.857V17.819H71.681V17h4.581v.819H74.4Z" transform="translate(-49.093 -16.851)" fill="#fff" stroke="#fff" stroke-miterlimit="10" stroke-width="0.2"/>
      <path id="Path_2141" data-name="Path 2141" d="M84.2,22.821a3.462,3.462,0,0,1-4.888,0,3.6,3.6,0,0,1,0-4.944,3.451,3.451,0,0,1,4.883,0,3.591,3.591,0,0,1,0,4.94Zm-4.256-.559a2.564,2.564,0,0,0,3.622,0,2.84,2.84,0,0,0,0-3.827,2.564,2.564,0,0,0-3.622,0,2.844,2.844,0,0,0,0,3.827Z" transform="translate(-48.355 -16.866)" fill="#fff" stroke="#fff" stroke-miterlimit="10" stroke-width="0.2"/>
      <path id="Path_2142" data-name="Path 2142" d="M85.575,23.667V17h1.043l3.24,5.186H89.9L89.858,20.9V17h.857v6.667h-.893l-3.39-5.438H86.4l.037,1.286v4.152Z" transform="translate(-47.549 -16.851)" fill="#fff" stroke="#fff" stroke-miterlimit="10" stroke-width="0.2"/>
    </g>
    <path id="Path_2143" data-name="Path 2143" d="M81.146,32.275A4.726,4.726,0,1,0,85.89,37,4.658,4.658,0,0,0,81.146,32.275Zm0,7.589A2.871,2.871,0,1,1,83.813,37,2.734,2.734,0,0,1,81.146,39.864ZM70.8,32.275A4.726,4.726,0,1,0,75.542,37,4.658,4.658,0,0,0,70.8,32.275Zm0,7.589A2.871,2.871,0,1,1,73.465,37,2.734,2.734,0,0,1,70.8,39.864Zm-12.31-6.139v2h4.8a4.184,4.184,0,0,1-1.091,2.523,4.912,4.912,0,0,1-3.706,1.468,5.334,5.334,0,0,1,0-10.668A5.111,5.111,0,0,1,62.1,30.485l1.414-1.414a7,7,0,0,0-5.03-2.023,7.34,7.34,0,1,0,0,14.679,6.707,6.707,0,0,0,5.119-2.059,6.625,6.625,0,0,0,1.737-4.69,6.477,6.477,0,0,0-.108-1.252Zm50.342,1.557a4.392,4.392,0,0,0-4.046-3.007A4.49,4.49,0,0,0,100.329,37a4.624,4.624,0,0,0,4.69,4.726,4.7,4.7,0,0,0,3.938-2.094l-1.611-1.074a2.7,2.7,0,0,1-2.327,1.307,2.4,2.4,0,0,1-2.292-1.431l6.319-2.614Zm-6.444,1.576a2.593,2.593,0,0,1,2.47-2.757,1.828,1.828,0,0,1,1.754,1ZM97.25,41.439h2.076V27.548H97.25Zm-3.4-8.109h-.071a3.275,3.275,0,0,0-2.488-1.056,4.73,4.73,0,0,0,0,9.451,3.219,3.219,0,0,0,2.488-1.074h.071v.681c0,1.808-.966,2.774-2.523,2.774a2.615,2.615,0,0,1-2.381-1.683l-1.808.752a4.5,4.5,0,0,0,4.189,2.792c2.434,0,4.493-1.432,4.493-4.922V32.56h-1.97Zm-2.38,6.533a2.874,2.874,0,0,1,0-5.728,2.663,2.663,0,0,1,2.523,2.882A2.64,2.64,0,0,1,91.468,39.864Zm27.09-12.315H113.59v13.89h2.072V36.177h2.9a4.32,4.32,0,1,0,0-8.628Zm.053,6.695h-2.949V29.483h2.949a2.381,2.381,0,1,1,0,4.761Zm12.813-1.994a3.894,3.894,0,0,0-3.7,2.126l1.841.769a1.964,1.964,0,0,1,1.894-1.019,2,2,0,0,1,2.18,1.788v.142a4.586,4.586,0,0,0-2.162-.536c-1.983,0-4,1.09-4,3.127a3.21,3.21,0,0,0,3.449,3.057,2.925,2.925,0,0,0,2.646-1.359h.071v1.072h2V36.09C135.641,33.625,133.8,32.249,131.424,32.249Zm-.25,7.612c-.68,0-1.627-.339-1.627-1.179,0-1.072,1.179-1.483,2.2-1.483a3.7,3.7,0,0,1,1.894.464A2.513,2.513,0,0,1,131.174,39.862Zm11.758-7.309-2.377,6.022h-.071l-2.467-6.022h-2.233l3.7,8.417-2.109,4.682h2.162l5.7-13.1Zm-18.674,8.887h2.073V27.549h-2.073Z" transform="translate(-5.44 -8.106)" fill="#fff"/>
    <g id="Group_2748" data-name="Group 2748" transform="translate(11.081 7.934)">
      <path id="Path_2144" data-name="Path 2144" d="M20.486,17.546a2.23,2.23,0,0,0-.513,1.561V43.681a2.228,2.228,0,0,0,.513,1.561l.082.08L34.334,31.556v-.324L20.569,17.465Z" transform="translate(-19.973 -17.104)" fill="url(#linear-gradient)"/>
      <path id="Path_2145" data-name="Path 2145" d="M37.487,35.23,32.9,30.638v-.324l4.59-4.59.1.06,5.437,3.089c1.552.882,1.552,2.326,0,3.208L37.591,35.17Z" transform="translate(-18.537 -16.187)" fill="url(#linear-gradient-2)"/>
      <path id="Path_2146" data-name="Path 2146" d="M38.976,34.694,34.283,30,20.435,43.849a1.808,1.808,0,0,0,2.31.068l16.231-9.222" transform="translate(-19.922 -15.711)" fill="url(#linear-gradient-3)"/>
      <path id="Path_2147" data-name="Path 2147" d="M38.976,26.737,22.745,17.514a1.808,1.808,0,0,0-2.31.068L34.283,31.43Z" transform="translate(-19.922 -17.14)" fill="url(#linear-gradient-4)"/>
      <g id="Group_2747" data-name="Group 2747" transform="translate(0 18.88)">
        <path id="Path_2148" data-name="Path 2148" d="M38.873,34.132,22.745,43.3a1.85,1.85,0,0,1-2.227.012h0l-.083.082h0l.082.081h0a1.85,1.85,0,0,0,2.227-.012l16.231-9.222Z" transform="translate(-19.922 -34.132)" opacity="0.2" style="isolation: isolate"/>
        <path id="Path_2149" data-name="Path 2149" d="M20.486,42.474a2.228,2.228,0,0,1-.513-1.561v.163a2.225,2.225,0,0,0,.513,1.56l.083-.082Z" transform="translate(-19.973 -33.378)" opacity="0.12" style="isolation: isolate"/>
      </g>
      <path id="Path_2150" data-name="Path 2150" d="M42.569,31.443l-5.54,3.148.1.1,5.437-3.089A1.95,1.95,0,0,0,43.733,30h0A2.068,2.068,0,0,1,42.569,31.443Z" transform="translate(-18.078 -15.711)" opacity="0.12" style="isolation: isolate"/>
      <path id="Path_2151" data-name="Path 2151" d="M22.8,17.677,44.464,29.988a2.068,2.068,0,0,1,1.164,1.442h0a1.947,1.947,0,0,0-1.164-1.6L22.8,17.514c-1.553-.882-2.823-.149-2.823,1.629v.163C19.973,17.528,21.243,16.794,22.8,17.677Z" transform="translate(-19.973 -17.14)" fill="#fff" opacity="0.25" style="isolation: isolate"/>
    </g>
  </g>
</svg>
